HIERARCHY
ROOT hip
{
	OFFSET 0.000000 0.000000 0.000000 
	CHANNELS 6 Xposition Yposition Zposition Xrotation Zrotation Yrotation
	JOINT abdomen
	{
		OFFSET 0.000000 3.402643 0.000000 
		CHANNELS 3 Xrotation Zrotation Yrotation
		JOINT chest
		{
			OFFSET 0.000000 8.438565 -0.680529 
			CHANNELS 3 Xrotation Zrotation Yrotation
			JOINT neck
			{
				OFFSET 0.000000 10.207942 -0.272212 
				CHANNELS 3 Xrotation Zrotation Yrotation
				JOINT head
				{
					OFFSET 0.000000 3.130431 0.000000 
					CHANNELS 3 Xrotation Zrotation Yrotation
					End Site
					{
						OFFSET 0.000000 3.130435 0.000000 
					}
				}
			}
			JOINT lCollar
			{
				OFFSET 3.470700 6.669187 -0.816635 
				CHANNELS 3 Yrotation Zrotation Xrotation
				JOINT lShldr
				{
					OFFSET 3.198488 0.000000 0.000000 
					CHANNELS 3 Zrotation Yrotation Xrotation
					JOINT lForeArm
					{
						OFFSET 10.139888 0.000000 0.000000 
						CHANNELS 3 Yrotation Zrotation Xrotation
						JOINT lHand
						{
							OFFSET 8.370511 0.000000 0.000000 
							CHANNELS 3 Zrotation Yrotation Xrotation
							End Site
							{
								OFFSET 4.083176 0.000000 0.000000 
							}
						}
					}
				}
			}
			JOINT rCollar
			{
				OFFSET -3.470700 6.669187 -0.816635 
				CHANNELS 3 Yrotation Zrotation Xrotation
				JOINT rShldr
				{
					OFFSET -3.198488 0.000000 0.000000 
					CHANNELS 3 Zrotation Yrotation Xrotation
					JOINT rForeArm
					{
						OFFSET -10.139888 0.000000 0.000000 
						CHANNELS 3 Yrotation Zrotation Xrotation
						JOINT rHand
						{
							OFFSET -8.370511 0.000000 0.000000 
							CHANNELS 3 Zrotation Yrotation Xrotation
							End Site
							{
								OFFSET -4.083176 0.000000 0.000000 
							}
						}
					}
				}
			}
		}
	}
	JOINT lThigh
	{
		OFFSET 5.308129 -1.633274 1.361059 
		CHANNELS 3 Xrotation Zrotation Yrotation
		JOINT lShin
		{
			OFFSET -2.041588 -20.007561 0.000000 
			CHANNELS 3 Xrotation Zrotation Yrotation
			JOINT lFoot
			{
				OFFSET 0.000000 -19.190928 -1.224953 
				CHANNELS 3 Xrotation Yrotation Zrotation
				End Site
				{
					OFFSET 0.000000 -2.449906 4.627600 
				}
			}
		}
	}
	JOINT rThigh
	{
		OFFSET -5.308129 -1.633274 1.361059 
		CHANNELS 3 Xrotation Zrotation Yrotation
		JOINT rShin
		{
			OFFSET 2.041588 -20.007561 0.000000 
			CHANNELS 3 Xrotation Zrotation Yrotation
			JOINT rFoot
			{
				OFFSET 0.000000 -19.190928 -1.224953 
				CHANNELS 3 Xrotation Yrotation Zrotation
				End Site
				{
					OFFSET 0.000000 -2.449906 4.627600 
				}
			}
		}
	}
}
MOTION
Frames: 6
Frame Time: 0.033333
5.606905 21.482592 1.101072 16.876101 -1.244110 11.486932 15.477752 1.494141 -0.029287 51.552742 -0.009766 -0.019533 -8.544920 -0.009766 -0.009767 9.511719 0.000000 -0.019531 1.992188 -2.001953 0.000341 -67.605141 -99.568268 -14.625298 -10.105661 -0.888919 8.306243 -9.338088 14.171318 15.115621 -2.001953 1.992188 0.000000 69.481300 96.156433 4.903084 23.377253 0.749032 8.368290 11.896986 -16.629601 -5.373218 -88.149635 30.359070 2.789070 122.419243 4.603929 -3.378934 -34.049816 6.898812 -0.081956 1.596848 -15.289127 -50.203297 92.688202 -2.726759 4.072161 59.592682 -5.759931 -36.082405 
5.606905 21.483303 1.101292 16.876101 -1.244110 11.486932 15.477752 1.494141 -0.029287 51.552742 -0.009766 -0.019533 -8.544920 -0.009766 -0.009767 9.511719 0.000000 -0.019531 1.992188 -2.001953 0.000341 -67.605141 -99.568268 -14.625298 -10.105661 -0.888919 8.306243 -9.338088 14.171318 15.115621 -2.001953 1.992188 0.000000 69.481300 96.156433 4.903084 23.377253 0.749032 8.368290 11.896986 -16.629601 -5.373218 -88.149635 30.359070 2.789070 122.419243 4.603929 -3.378935 -34.049816 6.898812 -0.081956 1.596848 -15.289127 -50.203297 92.688202 -2.726759 4.072161 59.592682 -5.759931 -36.082405 
5.606905 21.484015 1.101511 16.876101 -1.244110 11.486932 15.477752 1.494141 -0.029287 51.552742 -0.009766 -0.019533 -8.544920 -0.009766 -0.009767 9.511719 0.000000 -0.019531 1.992188 -2.001953 0.000341 -67.605141 -99.568268 -14.625298 -10.105661 -0.888919 8.306243 -9.338088 14.171318 15.115621 -2.001953 1.992188 0.000000 69.481300 96.156433 4.903084 23.377253 0.749032 8.368290 11.896986 -16.629601 -5.373218 -88.149635 30.359064 2.789074 122.419243 4.603928 -3.378936 -34.049816 6.898813 -0.081957 1.596848 -15.289127 -50.203297 92.688202 -2.726760 4.072160 59.592682 -5.759930 -36.082405 
5.606905 21.484728 1.101732 16.876101 -1.244110 11.486932 15.477752 1.494141 -0.029287 51.552742 -0.009766 -0.019533 -8.544920 -0.009766 -0.009767 9.511719 0.000000 -0.019531 1.992188 -2.001953 0.000341 -67.605141 -99.568268 -14.625298 -10.105661 -0.888919 8.306243 -9.338088 14.171318 15.115621 -2.001953 1.992188 0.000000 69.481300 96.156433 4.903084 23.377253 0.749032 8.368290 11.896986 -16.629601 -5.373218 -88.149635 30.359064 2.789072 122.419243 4.603927 -3.378936 -34.049816 6.898812 -0.081956 1.596848 -15.289127 -50.203297 92.688202 -2.726759 4.072161 59.592682 -5.759931 -36.082405 
5.606905 21.485435 1.101951 16.876101 -1.244110 11.486932 15.477752 1.494141 -0.029287 51.552742 -0.009766 -0.019533 -8.544920 -0.009766 -0.009767 9.511719 0.000000 -0.019531 1.992188 -2.001953 0.000341 -67.605141 -99.568268 -14.625298 -10.105661 -0.888919 8.306243 -9.338088 14.171318 15.115621 -2.001953 1.992188 0.000000 69.481300 96.156433 4.903084 23.377253 0.749032 8.368290 11.896986 -16.629601 -5.373218 -88.149635 30.359064 2.789073 122.419243 4.603928 -3.378936 -34.049816 6.898812 -0.081956 1.596848 -15.289127 -50.203297 92.688202 -2.726760 4.072160 59.592682 -5.759930 -36.082405 
5.606905 21.486147 1.102171 16.876101 -1.244110 11.486932 15.477713 1.572266 -0.029286 51.572281 -0.029297 -0.029302 -8.544920 -0.009766 -0.009767 9.531261 -0.068359 -0.009777 1.992188 -2.001953 0.000341 -67.817749 -99.577805 -14.392721 -10.105661 -0.888919 8.306243 -9.379276 14.196417 15.122548 -2.001953 1.992188 0.000000 69.543457 96.112701 5.184253 23.437883 0.742108 8.373426 11.871314 -16.618769 -5.381320 -88.151421 30.369894 2.752325 122.419464 4.586013 -3.381965 -34.051479 6.887665 -0.090756 1.596815 -15.279420 -50.202370 92.657845 -2.726528 4.100195 59.596844 -5.775268 -36.070339 
